<svg width="296" height="96" viewBox="0 0 296 96" fill="none" xmlns="http://www.w3.org/2000/svg">
<path opacity="0.9" d="M137.62 96C130.399 96 123.693 94.756 117.504 92.2681C111.4 89.7802 106.457 86.0054 102.674 80.9437C98.8913 75.7962 97 69.4048 97 61.7694C97 55.4209 98.8483 49.9303 102.545 45.2976C106.242 40.5791 111.486 37.6622 118.277 36.5469V36.1609C112.861 32.1287 110.153 27.1099 110.153 21.1046C110.153 15.4424 112.217 10.8954 116.343 7.4638C120.47 4.03217 126.144 2.31635 133.365 2.31635C138.523 2.31635 142.865 3.47453 146.389 5.79088C149.914 8.02144 151.676 11.3244 151.676 15.6997C151.676 18.445 150.86 20.8043 149.226 22.7775C147.679 24.7507 145.573 25.7373 142.908 25.7373C141.274 25.7373 139.856 25.3083 138.652 24.4504C137.534 23.5925 136.976 22.8633 136.976 22.2627C136.976 22.1769 137.363 21.7909 138.136 21.1046C138.91 20.4182 139.598 19.6032 140.2 18.6595C140.887 17.63 141.231 16.4718 141.231 15.185C141.231 12.697 140.328 10.7239 138.523 9.26541C136.804 7.72117 134.612 6.94906 131.946 6.94906C127.82 6.94906 124.596 8.19303 122.275 10.681C120.04 13.1689 118.922 16.2574 118.922 19.9464C118.922 26.2091 121.544 30.756 126.788 33.5871H131.044C132.419 33.5871 133.322 33.7587 133.752 34.1019C134.268 34.3592 134.569 35.2172 134.655 36.6756C134.655 37.5335 134.44 38.2627 134.01 38.8633C133.58 39.4638 132.978 39.7641 132.204 39.7641H127.691C122.103 40.2788 117.848 42.4665 114.925 46.3271C112.088 50.1877 110.669 54.6488 110.669 59.7105C110.669 65.2011 111.959 70.0054 114.538 74.1233C117.117 78.2413 120.685 81.4156 125.241 83.6461C129.883 85.8767 135.127 86.992 140.973 86.992C147.249 86.992 153.009 85.7051 158.253 83.1314C163.497 80.4718 167.667 76.8686 170.762 72.3217C173.856 67.689 175.404 62.4987 175.404 56.7507C175.404 51.7748 174.028 47.4424 171.277 43.7533C168.526 40.0643 164.744 38.2198 159.929 38.2198C157.436 38.2198 154.986 38.9491 152.579 40.4075C150.258 41.7802 149.097 43.7533 149.097 46.3271C149.097 47.6997 149.441 48.9008 150.129 49.9303C150.903 50.874 152.02 51.4745 153.482 51.7319C155.717 51.9893 157.522 51.5603 158.898 50.445C160.273 49.3298 161.047 48.7292 161.219 48.6434C161.649 48.7292 162.165 49.3298 162.766 50.445C163.454 51.4745 163.798 52.6756 163.798 54.0483C163.798 56.622 162.895 58.6381 161.09 60.0965C159.371 61.555 157.221 62.2842 154.642 62.2842C151.376 62.2842 148.753 60.9973 146.776 58.4236C144.799 55.7641 143.81 52.3753 143.81 48.2574C143.81 42.0804 145.444 37.3619 148.71 34.1019C151.977 30.8418 155.846 28.6542 160.316 27.5389C164.787 26.3378 170.59 25.3083 177.725 24.4504C184.001 23.8499 188.6 23.0777 191.523 22.134C193.414 21.4477 194.962 20.504 196.165 19.3029C197.455 18.0161 198.1 16.6005 198.1 15.0563C198.1 12.4826 196.509 10.9812 193.328 10.5523C191.093 10.2949 189.288 10.7239 187.912 11.8391C186.537 12.9544 185.763 13.555 185.591 13.6408C185.075 13.555 184.474 12.8686 183.786 11.5818C183.098 10.2949 182.883 8.83646 183.141 7.20643C183.485 4.80429 184.517 3.00268 186.236 1.80161C187.955 0.600536 189.976 0 192.297 0C194.188 0 195.779 0.300267 197.068 0.9008C199.131 1.8445 200.636 3.34584 201.582 5.40483C202.527 7.46381 203 9.73726 203 12.2252C203 16.8579 201.496 20.933 198.487 24.4504C195.564 27.882 191.609 30.5416 186.623 32.4289C181.637 34.2306 176.135 35.1314 170.117 35.1314C177.51 41.3941 181.207 48.6434 181.207 56.8794C181.207 64.7721 179.273 71.6783 175.404 77.5979C171.621 83.5174 166.42 88.0643 159.8 91.2386C153.181 94.4129 145.788 96 137.62 96Z" fill="#8CAC8F"/>
<g opacity="0.9">
<path d="M163.241 73.3806C162.828 73.3806 162.506 73.2429 162.276 72.9676C162.092 72.6464 162 72.2794 162 71.8664C162.046 71.1781 162.184 70.7652 162.414 70.6275C162.644 70.4899 163.081 70.4211 163.724 70.4211C165.058 70.4211 166.046 70.1916 166.69 69.7328C167.334 69.2281 167.724 68.6316 167.862 67.9433C168.046 67.2092 168.161 66.2686 168.207 65.1215V37.8664C168.161 36.6734 168.046 35.7328 167.862 35.0445C167.724 34.3563 167.334 33.7598 166.69 33.2551C166.046 32.7503 165.058 32.498 163.724 32.498H163.31C162.851 32.498 162.529 32.4292 162.345 32.2915C162.161 32.108 162.046 31.695 162 31.0526C162 30.6397 162.092 30.2955 162.276 30.0202C162.506 29.6991 162.828 29.5385 163.241 29.5385C166.23 29.6761 168.966 29.7449 171.449 29.7449H183.312C186.852 29.7908 189.795 30.3644 192.14 31.4656C194.531 32.5209 196.278 33.8974 197.381 35.5951C198.485 37.247 199.037 39.0364 199.037 40.9636C199.037 43.4872 198.025 45.8043 196.002 47.915C194.025 50.0256 191.312 51.5398 187.864 52.4575L189.036 54.3158C190.967 57.4359 192.714 60.1201 194.278 62.3684C195.841 64.5709 197.542 66.6356 199.382 68.5628C200.669 69.6181 202.048 70.2375 203.52 70.4211C203.612 70.4211 203.819 70.444 204.14 70.4899C204.462 70.4899 204.715 70.6046 204.899 70.834C205.129 71.0634 205.244 71.4076 205.244 71.8664C205.244 72.2794 205.129 72.6464 204.899 72.9676C204.715 73.2429 204.416 73.3806 204.003 73.3806L202.209 73.3117C200.186 73.22 198.715 73.1741 197.795 73.1741C195.956 72.807 194.37 72.1646 193.036 71.247C191.749 70.2834 190.461 68.9298 189.174 67.1862C187.841 65.4426 185.978 62.5978 183.588 58.6518L182.346 56.6559C181.656 55.6005 180.99 54.8893 180.346 54.5223C179.702 54.1093 178.599 53.9028 177.035 53.9028H175.035V65.1215C175.081 66.2686 175.173 67.2092 175.311 67.9433C175.495 68.6316 175.909 69.2281 176.553 69.7328C177.196 70.1916 178.185 70.4211 179.518 70.4211H179.932C180.346 70.4211 180.645 70.5128 180.829 70.6964C181.059 70.834 181.197 71.224 181.243 71.8664C181.243 72.2794 181.128 72.6464 180.898 72.9676C180.714 73.2429 180.415 73.3806 180.001 73.3806C177.058 73.2429 174.185 73.1741 171.38 73.1741C168.943 73.1741 166.23 73.2429 163.241 73.3806ZM181.105 51.2186C187.956 51.2186 191.381 48.0067 191.381 41.583C191.381 38.9676 190.484 36.7652 188.691 34.9757C186.898 33.1862 183.955 32.2915 179.863 32.2915C178.53 32.2915 177.518 32.4521 176.828 32.7733C176.139 33.0945 175.656 33.6451 175.38 34.4251C175.15 35.2051 175.035 36.3981 175.035 38.004V51.2186H181.105Z" fill="black"/>
<path d="M216.219 74C213.461 74 211.231 73.22 209.529 71.6599C207.828 70.0999 206.977 68.1498 206.977 65.8097C206.977 62.919 207.943 60.7625 209.874 59.3401C211.805 57.8718 214.104 56.9312 216.771 56.5182C219.438 56.0594 222.886 55.7153 227.117 55.4858V50.0486C227.117 47.8003 226.542 46.1026 225.392 44.9555C224.289 43.7625 222.496 43.166 220.013 43.166C218.587 43.166 217.346 43.6019 216.288 44.4737C215.231 45.3455 214.702 46.5155 214.702 47.9838C214.702 48.7179 214.863 49.3374 215.185 49.8421C215.553 50.3009 215.92 50.691 216.288 51.0121C216.702 51.3333 216.909 51.5169 216.909 51.5628C216.909 51.8381 216.61 52.2051 216.012 52.664C215.461 53.0769 214.771 53.2834 213.943 53.2834C212.564 53.2834 211.46 52.7787 210.633 51.7692C209.851 50.7598 209.46 49.5668 209.46 48.1903C209.46 45.8043 210.518 44.0378 212.633 42.8907C214.794 41.7436 217.392 41.17 220.426 41.17C224.197 41.17 227.254 41.8812 229.599 43.3036C231.99 44.726 233.186 47.3644 233.186 51.2186V67.2551C233.232 68.2186 233.531 69.1363 234.082 70.0081C234.634 70.8799 235.531 71.3158 236.772 71.3158C237.14 71.3158 237.393 71.3846 237.531 71.5223C237.715 71.6599 237.807 71.9582 237.807 72.417C237.807 72.9676 237.37 73.3576 236.496 73.587C235.669 73.8623 234.841 74 234.014 74C232.266 74 230.726 73.4953 229.393 72.4858C228.059 71.4764 227.3 70.1228 227.117 68.4251C226.151 70.2146 224.657 71.5911 222.634 72.5547C220.656 73.5182 218.518 74 216.219 74ZM218.426 70.2834C219.99 70.2834 221.438 69.8934 222.771 69.1134C224.105 68.3333 225.162 67.278 225.944 65.9474C226.726 64.5709 227.117 63.0567 227.117 61.4049V57.4818C222.289 57.8489 218.886 58.6289 216.909 59.8219C214.932 61.0148 213.943 62.942 213.943 65.6032C213.943 68.7233 215.438 70.2834 218.426 70.2834Z" fill="black"/>
<path d="M243.185 73.3806C242.817 73.3806 242.541 73.2429 242.357 72.9676C242.173 72.6923 242.081 72.3711 242.081 72.004C242.127 71.4076 242.242 71.0634 242.426 70.9717C242.656 70.834 243.07 70.7652 243.668 70.7652C244.863 70.7652 245.714 70.5587 246.22 70.1457C246.725 69.7328 247.001 69.274 247.047 68.7692C247.139 68.2186 247.185 67.3239 247.185 66.085V44.6802H242.564C242.196 44.6802 241.897 44.5425 241.668 44.2672C241.484 43.9919 241.392 43.6707 241.392 43.3036C241.438 42.6613 241.576 42.2942 241.805 42.2024C242.035 42.0648 242.449 41.996 243.047 41.996H247.185V39.1053C247.185 34.3792 248.289 30.5479 250.496 27.6113C252.749 24.6289 255.898 23.0918 259.944 23C262.197 23 264.221 23.6424 266.014 24.9271C267.807 26.166 268.704 27.7719 268.704 29.7449C268.704 31.1215 268.29 32.3374 267.462 33.3927C266.681 34.4022 265.577 34.9069 264.152 34.9069C263.324 34.9069 262.611 34.6775 262.014 34.2186C261.416 33.7598 261.117 33.3927 261.117 33.1174C261.117 33.0715 261.324 32.8421 261.738 32.4292C262.198 32.0162 262.588 31.5344 262.91 30.9838C263.278 30.3873 263.462 29.6991 263.462 28.919C263.462 27.9096 263.071 27.0607 262.289 26.3725C261.554 25.6383 260.611 25.2713 259.462 25.2713C257.623 25.2713 256.266 25.9825 255.392 27.4049C254.519 28.8273 253.99 30.3873 253.806 32.085C253.622 33.7368 253.53 35.664 253.53 37.8664V41.996H260.289H260.703C261.117 41.996 261.416 42.0877 261.6 42.2713C261.83 42.4089 261.968 42.753 262.014 43.3036C262.014 43.6707 261.899 43.9919 261.669 44.2672C261.439 44.5425 261.163 44.6802 260.841 44.6802H253.53V66.085C253.53 67.5074 253.645 68.5398 253.875 69.1822C254.105 69.7787 254.542 70.1916 255.186 70.4211C255.829 70.6505 256.91 70.7652 258.427 70.7652H258.841C259.255 70.7652 259.531 70.834 259.669 70.9717C259.853 71.1093 259.967 71.4534 260.013 72.004C260.013 72.3711 259.921 72.6923 259.738 72.9676C259.554 73.2429 259.301 73.3806 258.979 73.3806C256.312 73.2429 253.438 73.1741 250.358 73.1741C248.197 73.1741 245.806 73.2429 243.185 73.3806Z" fill="black"/>
<path d="M274.412 74C271.654 74 269.424 73.22 267.722 71.6599C266.021 70.0999 265.171 68.1498 265.171 65.8097C265.171 62.919 266.136 60.7625 268.067 59.3401C269.998 57.8718 272.297 56.9312 274.964 56.5182C277.631 56.0594 281.08 55.7153 285.31 55.4858V50.0486C285.31 47.8003 284.735 46.1026 283.585 44.9555C282.482 43.7625 280.689 43.166 278.206 43.166C276.78 43.166 275.539 43.6019 274.481 44.4737C273.424 45.3455 272.895 46.5155 272.895 47.9838C272.895 48.7179 273.056 49.3374 273.378 49.8421C273.746 50.3009 274.114 50.691 274.481 51.0121C274.895 51.3333 275.102 51.5169 275.102 51.5628C275.102 51.8381 274.803 52.2051 274.206 52.664C273.654 53.0769 272.964 53.2834 272.136 53.2834C270.757 53.2834 269.654 52.7787 268.826 51.7692C268.044 50.7598 267.653 49.5668 267.653 48.1903C267.653 45.8043 268.711 44.0378 270.826 42.8907C272.987 41.7436 275.585 41.17 278.62 41.17C282.39 41.17 285.448 41.8812 287.793 43.3036C290.184 44.726 291.379 47.3644 291.379 51.2186V67.2551C291.425 68.2186 291.724 69.1363 292.276 70.0081C292.827 70.8799 293.724 71.3158 294.965 71.3158C295.333 71.3158 295.586 71.3846 295.724 71.5223C295.908 71.6599 296 71.9582 296 72.417C296 72.9676 295.563 73.3576 294.69 73.587C293.862 73.8623 293.034 74 292.207 74C290.459 74 288.919 73.4953 287.586 72.4858C286.252 71.4764 285.494 70.1228 285.31 68.4251C284.344 70.2146 282.85 71.5911 280.827 72.5547C278.85 73.5182 276.711 74 274.412 74ZM276.62 70.2834C278.183 70.2834 279.631 69.8934 280.965 69.1134C282.298 68.3333 283.356 67.278 284.137 65.9474C284.919 64.5709 285.31 63.0567 285.31 61.4049V57.4818C280.482 57.8489 277.079 58.6289 275.102 59.8219C273.125 61.0148 272.136 62.942 272.136 65.6032C272.136 68.7233 273.631 70.2834 276.62 70.2834Z" fill="black"/>
</g>
<g opacity="0.9">
<path d="M1.23756 73.3806C0.825037 73.3806 0.527107 73.2429 0.343765 72.9676C0.114588 72.6464 0 72.2794 0 71.8664C0.0458354 71.1781 0.183342 70.7652 0.412518 70.6275C0.641695 70.4899 0.916708 70.4211 1.23756 70.4211C1.5584 70.4211 1.76466 70.4211 1.85633 70.4211C3.23139 70.4211 4.23977 70.0769 4.88147 69.3887C5.52316 68.6545 6.02735 67.8516 6.39404 66.9798C6.80656 66.0621 7.08157 65.4426 7.21907 65.1215L19.2509 36.6275C19.5259 35.9393 19.6634 35.3887 19.6634 34.9757C19.6634 34.1498 19.3425 33.5533 18.7008 33.1862C18.0591 32.8192 17.1654 32.5209 16.0195 32.2915C15.2403 32.1538 14.759 32.0162 14.5757 31.8785C14.3923 31.7409 14.3006 31.3509 14.3006 30.7085C14.3006 30.1579 14.4381 29.7908 14.7132 29.6073C15.034 29.4238 15.5153 29.332 16.157 29.332C18.4487 29.332 20.2592 29.5155 21.5885 29.8826C22.9635 30.2038 24.1553 30.892 25.1636 31.9474C26.172 32.9568 27.1116 34.5169 27.9825 36.6275L39.533 65.1215C40.2206 66.865 40.8852 68.1727 41.5269 69.0445C42.1686 69.9163 43.1311 70.3752 44.4145 70.4211H44.827C45.2854 70.4211 45.6062 70.5128 45.7896 70.6964C45.9729 70.834 46.0875 71.224 46.1333 71.8664C46.1333 72.2794 46.0187 72.6464 45.7896 72.9676C45.6062 73.2429 45.3083 73.3806 44.8958 73.3806C41.9623 73.2429 39.4414 73.1741 37.3329 73.1741C34.5828 73.1741 31.741 73.2429 28.8075 73.3806C28.395 73.3806 28.0742 73.2429 27.845 72.9676C27.6617 72.6464 27.57 72.2794 27.57 71.8664C27.6158 71.224 27.7304 70.834 27.9138 70.6964C28.0971 70.5128 28.4179 70.4211 28.8763 70.4211C30.4347 70.4211 31.5347 70.2834 32.1764 70.0081C32.8181 69.6869 33.139 69.1363 33.139 68.3563C33.139 67.7598 32.864 66.6815 32.3139 65.1215L29.9763 59.4089H12.9943C11.8484 62.2537 11.1838 63.9055 11.0005 64.3644C10.863 64.8232 10.7942 65.0756 10.7942 65.1215C10.2442 66.865 9.9692 67.9892 9.9692 68.4939C9.9692 69.274 10.313 69.8016 11.0005 70.0769C11.688 70.3063 12.9943 70.4211 14.9194 70.4211H15.3319C15.7903 70.4211 16.1111 70.5128 16.2945 70.6964C16.4778 70.834 16.5924 71.224 16.6382 71.8664C16.6382 72.2794 16.5237 72.6464 16.2945 72.9676C16.1111 73.2429 15.8132 73.3806 15.4007 73.3806C12.4672 73.2429 9.9692 73.1741 7.9066 73.1741C6.43987 73.1741 4.21686 73.2429 1.23756 73.3806ZM14.3006 56.4494H28.7388L21.7947 38.7611H21.5885L14.3006 56.4494Z" fill="black"/>
<path d="M45.6714 73.3806C45.3505 73.3806 45.0755 73.2429 44.8463 72.9676C44.663 72.6923 44.5713 72.3711 44.5713 72.004C44.6172 71.4076 44.7318 71.0634 44.9151 70.9717C45.1443 70.834 45.5568 70.7652 46.1527 70.7652C47.3444 70.7652 48.1923 70.5587 48.6965 70.1457C49.2007 69.7328 49.4986 69.251 49.5903 68.7004C49.682 68.1498 49.7278 67.278 49.7278 66.085V32.498C49.7278 31.305 49.682 30.4332 49.5903 29.8826C49.5445 29.332 49.2695 28.8502 48.7653 28.4372C48.2611 28.0243 47.4131 27.8178 46.2214 27.8178C45.6714 27.8178 45.2589 27.749 44.9838 27.6113C44.7088 27.4278 44.5713 27.0378 44.5713 26.4413C44.5713 26.166 44.663 25.9136 44.8463 25.6842C45.0297 25.4089 45.3047 25.2483 45.6714 25.2024C48.559 24.7895 51.0341 24.193 53.0967 23.413C53.7384 23.1835 54.2655 23.0459 54.678 23H54.8843C55.6177 23 55.9843 23.4359 55.9843 24.3077V66.085C55.9843 67.278 56.0302 68.1498 56.1219 68.7004C56.2135 69.251 56.5115 69.7328 57.0156 70.1457C57.5198 70.5587 58.3678 70.7652 59.5595 70.7652H59.972C60.3387 70.7652 60.6137 70.834 60.7971 70.9717C60.9804 71.1093 61.095 71.4534 61.1408 72.004C61.1408 72.3711 61.0492 72.6923 60.8658 72.9676C60.6825 73.2429 60.4075 73.3806 60.0408 73.3806C57.3823 73.2429 54.976 73.1741 52.8217 73.1741C50.7591 73.1741 48.3757 73.2429 45.6714 73.3806Z" fill="black"/>
<path d="M66.0314 73.3806C65.7106 73.3806 65.4356 73.2429 65.2064 72.9676C65.023 72.6923 64.9314 72.3711 64.9314 72.004C64.9772 71.4076 65.1147 71.0634 65.3439 70.9717C65.5731 70.834 65.9856 70.7652 66.5815 70.7652C67.7732 70.7652 68.6211 70.5587 69.1253 70.1457C69.6295 69.7328 69.9045 69.251 69.9504 68.7004C70.042 68.1498 70.0879 67.278 70.0879 66.085V50.3239C70.0879 49.1309 70.042 48.2591 69.9504 47.7085C69.9045 47.1579 69.6295 46.6761 69.1253 46.2632C68.6211 45.8502 67.7732 45.6437 66.5815 45.6437C66.0314 45.6437 65.6189 45.5749 65.3439 45.4372C65.0689 45.2537 64.9314 44.8637 64.9314 44.2672C64.9314 43.9919 65.023 43.7395 65.2064 43.5101C65.3897 43.2348 65.6647 43.0742 66.0314 43.0283C68.9191 42.6154 71.3942 42.0189 73.4568 41.2389C74.0985 41.0094 74.6256 40.8718 75.0381 40.8259H75.2443C75.9777 40.8259 76.3444 41.2618 76.3444 42.1336V66.085C76.3444 67.278 76.3902 68.1498 76.4819 68.7004C76.5736 69.251 76.8715 69.7328 77.3757 70.1457C77.8799 70.5587 78.7278 70.7652 79.9195 70.7652H80.3321C80.6988 70.7652 80.9738 70.834 81.1571 70.9717C81.3404 71.1093 81.455 71.4534 81.5009 72.004C81.5009 72.3711 81.4092 72.6923 81.2259 72.9676C81.0425 73.2429 80.7675 73.3806 80.4008 73.3806C77.7424 73.2429 75.336 73.1741 73.1817 73.1741C71.1192 73.1741 68.7357 73.2429 66.0314 73.3806ZM72.838 33.1862C71.5546 33.1862 70.4775 32.7962 69.6066 32.0162C68.7357 31.1903 68.3003 30.1808 68.3003 28.9879C68.3003 27.9325 68.8274 26.9919 69.8816 26.166C70.9358 25.3401 72.1275 24.9271 73.4568 24.9271C74.6026 24.9271 75.5423 25.3401 76.2756 26.166C77.009 26.946 77.3757 27.9555 77.3757 29.1943C77.3757 30.2955 76.9402 31.2362 76.0694 32.0162C75.1985 32.7962 74.1214 33.1862 72.838 33.1862Z" fill="black"/>
<path d="M100.344 74C95.6683 74 92.0015 72.5088 89.343 69.5263C86.6846 66.5439 85.3553 62.552 85.3553 57.5506C85.447 54.4305 86.2033 51.6545 87.6242 49.2227C89.0909 46.7449 91.0389 44.8178 93.4682 43.4413C95.8975 42.0189 98.5788 41.2618 101.512 41.17C104.446 41.17 106.967 41.7206 109.075 42.8219C111.229 43.9231 112.307 45.7584 112.307 48.3279C112.307 49.7503 111.871 51.0121 111 52.1134C110.175 53.1687 109.052 53.6964 107.631 53.6964C106.76 53.6964 106.004 53.4669 105.362 53.0081C104.767 52.5493 104.469 52.1592 104.469 51.8381C104.469 51.7922 104.675 51.5857 105.087 51.2186C105.5 50.8516 105.867 50.4157 106.188 49.9109C106.554 49.3603 106.738 48.7409 106.738 48.0526C106.738 46.6302 106.21 45.552 105.156 44.8178C104.148 44.0837 102.91 43.7166 101.444 43.7166C97.9142 43.7166 95.5079 45.0243 94.2245 47.6397C92.9869 50.2092 92.3682 53.444 92.3682 57.3441C92.3682 61.1984 93.239 64.3644 94.9808 66.8421C96.7225 69.3198 99.0372 70.5587 101.925 70.5587C103.896 70.5587 105.569 70.1457 106.944 69.3198C108.365 68.448 109.648 67.1404 110.794 65.3968C110.931 65.1673 111.161 65.0526 111.482 65.0526C111.711 65.0526 111.963 65.1215 112.238 65.2591C112.467 65.3509 112.65 65.5115 112.788 65.7409C112.925 65.9703 112.994 66.1997 112.994 66.4291C112.994 66.5668 112.925 66.7503 112.788 66.9798C111.275 69.1363 109.396 70.8569 107.15 72.1417C104.904 73.3806 102.635 74 100.344 74Z" fill="black"/>
<path d="M134.074 74C130.637 74 127.703 73.2659 125.274 71.7976C122.891 70.3293 121.08 68.3333 119.843 65.8097C118.605 63.2861 117.986 60.4872 117.986 57.413C117.986 54.7058 118.605 52.1134 119.843 49.6356C121.126 47.112 122.936 45.0702 125.274 43.5101C127.612 41.9501 130.293 41.17 133.318 41.17C137.397 41.17 140.537 42.2254 142.737 44.336C144.937 46.4008 146.198 49.1997 146.519 52.7328C146.519 54.247 146.106 55.2794 145.281 55.83C144.456 56.3806 143.264 56.6559 141.706 56.6559H124.999C124.999 60.9231 125.87 64.3185 127.612 66.8421C129.399 69.3198 132.149 70.5587 135.862 70.5587C137.833 70.5587 139.506 70.1457 140.881 69.3198C142.256 68.448 143.562 67.0027 144.8 64.9838C145.029 64.7544 145.258 64.6397 145.487 64.6397C145.808 64.6397 146.083 64.7314 146.312 64.915C146.771 65.1903 147 65.6032 147 66.1538C147 66.4291 146.954 66.6356 146.862 66.7733C145.442 69.0675 143.631 70.8569 141.431 72.1417C139.277 73.3806 136.825 74 134.074 74ZM136.206 54.0405C138.543 54.0405 139.781 53.0769 139.918 51.1498C139.918 49.0391 139.345 47.2497 138.2 45.7814C137.054 44.3131 135.427 43.5789 133.318 43.5789C130.981 43.5789 129.055 44.5196 127.543 46.4008C126.03 48.2362 125.182 50.7827 124.999 54.0405H136.206Z" fill="black"/>
</g>
</svg>
